<?xml version="1.0" encoding="utf-8"?>
<!-- Generator: Adobe Illustrator 27.5.0, SVG Export Plug-In . SVG Version: 6.00 Build 0)  -->
<svg version="1.1" id="Layer_1" xmlns="http://www.w3.org/2000/svg" xmlns:xlink="http://www.w3.org/1999/xlink" x="0px" y="0px"
	 viewBox="0 0 2283 1128" style="enable-background:new 0 0 2283 1128;" xml:space="preserve">
<style type="text/css">
	.st0{stroke:#FFFFFF;stroke-miterlimit:10;}
</style>
<g transform="translate(0.000000,1128.000000) scale(0.100000,-0.100000)">
	<path class="st0" d="M7310,7830V5800h395h395v855v855h28c26-1,49-42,479-853l451-852l432-3c383-2,432,0,426,13
		c-3,8-210,399-459,868c-250,468-462,867-471,885l-17,33l31,10c64,23,198,93,275,144c265,177,412,438,447,798c21,211-17,464-94,639
		c-105,239-267,412-483,518c-242,119-520,150-1357,150h-478V7830z M8486,9080c204-14,288-43,369-126c68-69,97-141,103-250
		c9-176-55-299-186-357c-100-45-188-58-439-64l-233-6v407v406h128C8298,9089,8414,9085,8486,9080z"/>
	<path class="st0" d="M10520,7830V5800h1115h1115v390v390h-720h-720v520v520h720h720l-2,378l-3,377l-717,3l-718,2v350v350l718,2
		l717,3l3,388l2,387h-1115h-1115V7830z"/>
	<path class="st0" d="M13826,9828c-3-18-159-919-346-2003c-187-1083-343-1982-346-1997l-6-28h386c212,0,386,1,386,3
		c1,1,99,565,219,1252c172,985,221,1245,228,1225c6-14,194-577,419-1252l409-1228h347h346l30,88c16,48,204,604,416,1236
		c213,632,391,1156,396,1165s10,11,10,5c0-20,420-2488,424-2491c2-2,174-2,383-1l379,3l-340,2028l-340,2027h-382h-382l-85-252
		c-409-1223-841-2506-847-2517c-5-10-177,495-470,1377l-463,1392h-382h-383L13826,9828z"/>
	<path class="st0" d="M19721,9838c-5-13-354-918-776-2013c-423-1094-770-1998-773-2007c-4-17,20-18,405-18h410l163,415l164,415h816
		h816l119-312c65-172,136-359,158-415l39-103h409c225,0,409,3,409,8c-1,4-351,916-778,2027l-777,2020l-398,3l-397,2L19721,9838z
		 M20388,8083c138-357,254-656,258-665c6-17-23-18-515-18c-287,0-521,3-521,6c0,15,515,1324,521,1324
		C20134,8730,20250,8439,20388,8083z"/>
	<path class="st0" d="M6510,9043c-918-137-1781-338-2443-569c-801-279-1839-721-2417-1029c-645-343-974-591-1195-900
		c-259-363-350-793-259-1230c11-55,15-106,11-165c-4-76-4-80,5-32c5,30,11,52,13,50c1-2,19-52,39-112c243-728,1078-1471,2131-1894
		c1087-437,3390-961,6120-1391c839-133,1806-261,1964-261c29,0,95,26,243,94c194,89,2370,1095,4275,1976l902,417l-1022,7
		c-2829,18-5057,64-5982,122c-602,37-1885,218-3285,464c-551,97-1632,439-2085,660c-219,106-292,160-426,312l-60,66l53,64
		c316,381,1223,1025,1978,1403c219,109,201,103,1157,450c452,164,821,300,820,302c-2,1-113-13-248-32c-877-127-1734-308-2341-496
		c-108-34-200-88-478-283c-326-229-565-421-764-616c-194-189-264-282-331-436c-18-41-35-78-39-81c-9-10-73,135-98,223
		c-29,102-31,285-4,384c42,159,98,272,194,395c84,109,305,327,462,455c472,385,1261,891,1711,1096c230,105,793,324,1364,531
		c99,36,182,67,184,69C6667,9063,6607,9058,6510,9043z M10070,3300c-43-156-78-285-77-286s119,124,261,279c143,155,263,284,268,286
		s-83-126-196-283s-203-286-200-286c5,0,681,472,722,503c6,5,12,7,12,4s-139-123-310-267c-170-144-310-263-310-265
		c0-7,62,22,474,219c214,102,391,184,393,182s-174-104-391-227c-218-122-394-224-392-226s216,62,476,142c259,81,473,145,475,143
		s-203-82-455-178c-253-95-458-175-456-177c1-2,221,33,488,77s489,80,493,80c30,0-55-21-490-120c-269-61-494-113-500-115
		c-5-3,89-2,210,0c530,11,757,13,715,6c-25-5-251-26-502-47c-252-21-456-39-455-41c2-1,185-30,408-63c418-63,454-69,448-74
		c-2-2-211,11-464,29s-461,32-463,30c-1-1,154-62,345-135c192-73,352-136,357-141c5-4-40,5-100,21s-242,65-404,109
		c-162,43-296,78-297,77s110-91,248-201c137-109,249-200,249-202c0-5-19,5-328,184c-156,89-284,163-286,163c-1,0,53-111,122-246
		c68-135,122-247,120-249s-86,100-188,227l-185,230l-7-277c-4-152-9-282-11-288s-28,111-57,261c-30,149-57,268-61,264
		s-66-133-139-287s-137-284-143-290c-7-7-8-5-4,6c14,42,157,562,155,564s-120-124-263-280s-262-281-264-279c-2,1,90,132,203,290
		c132,182,197,280,179,269c-15-10-176-123-358-250c-348-244-355-249-355-242c0,3,138,121,308,262c169,142,312,262,317,267
		c16,15-57-19-450-207c-388-185-452-215-423-193c9,7,192,112,406,233c215,121,389,221,388,222s-219-66-485-148s-485-148-487-146
		s203,82,456,178s456,175,452,177c-4,1-226-34-492-78s-485-78-487-76c-5,5-36-3,507,121c256,58,470,108,475,110c11,5-561-2-805-10
		c-245-7-113,11,372,51c252,21,454,41,450,45c-4,3-180,32-392,64c-212,31-398,61-415,65c-34,10-23,9,525-29c212-15,386-27,387-26
		s-154,61-345,134s-351,137-356,142c-5,4,40-5,100-21s241-65,402-108c160-43,292-78,292-76c0,1-110,90-245,198s-245,199-245,202
		s15-3,33-14c17-11,151-88,297-172s269-155,274-158c4-2-48,107-117,244c-70,136-125,249-123,251s86-99,187-225l184-229l10,286
		c6,157,13,279,16,271s28-129,55-267c26-139,51-253,54-253s68,131,144,290c76,160,140,289,142,287S10114,3456,10070,3300z"/>
	<path class="st0" d="M9790,2946c-265-56-463-222-420-351c54-164,413-189,684-47c236,123,273,308,77,383
		C10060,2959,9886,2966,9790,2946z M10031,2940c211-40,259-174,112-312c-178-165-578-212-708-83c-49,49-54,91-20,160
		C9492,2863,9805,2982,10031,2940z"/>
	<path class="st0" d="M8327,5290c-97-25-173-88-215-179c-38-80-37-194,0-266c30-59,103-130,156-152c55-24,182-25,244-2
		c126,46,200,154,200,294c0,63-4,81-33,135c-36,68-92,123-156,151C8474,5294,8379,5303,8327,5290z M8507,5157
		c162-112,83-376-113-377c-65,0-147,53-175,114c-21,46-25,129-8,173c13,36,66,92,104,109C8364,5199,8460,5190,8507,5157z"/>
	<path class="st0" d="M8822,5045c3-282,5-290,82-343c33-23,50-27,109-28c39-1,80,4,91,10c51,27,74,49,96,88c22,40,24,54,29,283
		l6,240l-62-3l-63-4v-225c0-124-4-232-10-242c-24-45-119-51-153-10c-16,20-17,44-15,253l3,231h-58h-58L8822,5045z"/>
	<path class="st0" d="M9380,4988v-308h59h59v125c-1,69,1,127,3,130c3,2,35-54,72-126l68-129h64h64l-32,58c-18,32-33,65-35,73
		c-2,7-8,16-12,19c-10,6-64,120-59,124c2,1,20,12,40,24c85,51,94,189,17,258c-42,38-69,46-189,53l-119,6V4988z M9610,5153
		c15-19,19-35,15-53c-9-36-32-50-84-50h-46l2,62c1,35,2,64,2,66c1,1,21,2,45,2C9580,5180,9592,5175,9610,5153z"/>
	<path class="st0" d="M10100,4988v-308h168h167l-3,55l-4,55h-109h-109v80v80h110h110v55v55h-110h-110v60v60h113h112v58v57h-167h-168
		V4988z"/>
	<path class="st0" d="M10603,5293l-53-4v-305v-304h60h60v196v197l128-196l127-197h58h57v308v307h-57h-58l-5-195l-5-195l-129,198
		c-71,108-129,196-130,195C10656,5297,10631,5295,10603,5293z"/>
	<path class="st0" d="M11135,5280c3-8,51-145,108-305l103-290h59h59l108,300c59,165,108,302,108,305s-27,5-60,5h-60l-17-50
		c-10-27-18-53-19-57c-1-5-3-10-4-13s-3-9-4-14c0-5-4-13-8-17c-5-4-8-13-8-20s-5-25-12-41c-6-15-12-31-13-35c-2-5-4-10-5-13
		s-3-9-4-14c0-5-4-13-8-17c-5-4-8-13-8-20s-5-25-12-41c-6-15-12-31-13-35c-2-5-4-11-5-15c-1-5-2-11-1-15c0-5-3-8-8-8
		c-4,0-41,94-82,209l-73,209l-63,4C11141,5294,11131,5292,11135,5280z"/>
	<path class="st0" d="M12020,4988v-308h58h57l-3,130c-2,71,1,130,5,130c5,0,39-58,78-130l69-130h62h63l-36,63
		c-30,53-101,186-111,210c-2,4,0,7,5,5c15-4,73,32,89,57c36,55,26,163-20,213c-38,43-74,54-197,61l-119,6V4988z M12250,5160
		c26-26,25-60,0-88c-16-17-32-22-70-22h-50v65v65h50C12217,5180,12235,5175,12250,5160z"/>
	<path class="st0" d="M12727,5290c-97-25-173-88-215-179c-38-81-38-195,0-267c35-67,117-140,177-158c44-13,159-15,209-3
		c39,10,108,55,138,89c50,60,76,132,77,212c0,63-4,80-33,135c-37,69-93,123-157,152C12874,5294,12779,5303,12727,5290z M12907,5157
		c107-74,119-234,24-320c-133-120-330-30-331,150c0,65,13,99,53,142c46,48,82,62,153,58C12854,5185,12877,5178,12907,5157z"/>
	<path class="st0" d="M13220,4988v-308h58h57l-2,202c-2,187-1,201,13,183c9-11,70-102,135-202l119-183h55h54l3,308l3,307l-60-1
		l-60-2l-5-198l-5-198l-124,189c-68,105-124,195-124,200c0,6-27,10-59,10h-58V4988z"/>
	<path class="st0" d="M13916,5288c5-8-93-586-102-600c-3-4,21-8,53-8h58l28,168c16,92,31,176,34,187c5,18,7,18,16-5
		c6-14,11-28,12-32c2-5,3-9,5-10c1-2,3-11,5-21s7-26,11-35s8-23,10-30c1-8,6-21,10-30s8-23,10-30c1-8,6-21,10-30s8-20,9-24
		c2-5,4-10,5-13s4-9,5-15c1-5,3-11,5-12c1-2,3-11,5-21c8-45,13-48,67-45l52,3l61,177c61,177,74,208,76,172c0-10,2-28,5-39
		c2-11,7-36,10-55s7-44,9-55s6-38,9-59c6-40,15-89,21-116c2-8,4-18,4-22c1-9,111-11,111-2c0,3-22,140-50,304c-27,164-50,300-50,302
		s-27,3-59,3c-33,0-58-3-56-6c4-5-132-409-139-417c-2-2-36,93-75,210l-71,213h-59C13938,5295,13914,5292,13916,5288z"/>
	<path class="st0" d="M14620,4988v-308h168h167l-3,55l-4,55h-109h-109v80v80h110h110v55v55h-110h-110v60v60h113h112v58v57h-167h-168
		V4988z"/>
	<path class="st0" d="M15123,5292l-53-3v-305v-304h60h60l2,192l3,193l125-193l125-192h58h57v308v307h-60h-60v-195
		c0-164-2-192-14-180c-7,8-64,94-126,190s-115,177-119,180C15178,5293,15151,5294,15123,5292z"/>
	<path class="st0" d="M15808,5293l-168-3v-55v-55h55h56l-3-250l-3-250h63h62v250v250h55h55v60c0,33-1,59-2,58
		C15976,5297,15900,5294,15808,5293z"/>
	<path class="st0" d="M16507,5290c-93-24-179-91-216-169c-35-74-37-192-4-262c29-64,87-126,147-157c77-39,189-40,271-3
		c292,133,217,571-102,596C16571,5297,16528,5295,16507,5290z M16691,5155c51-36,81-91,87-159c3-42-1-61-25-106
		c-74-140-271-147-350-12c-61,104-20,237,92,297C16544,5201,16639,5191,16691,5155z"/>
	<path class="st0" d="M17300,5067v-229l-29-29c-37-36-79-38-118-5l-28,24l-3,231l-4,231h-60h-61l5-232c4-209,7-238,25-280
		c32-70,85-101,176-104c40-1,77,1,82,4c6,4,17,7,25,9c25,3,88,78,98,117c6,20,11,139,12,264l1,227h-61h-60V5067z"/>
	<path class="st0" d="M17565,4988v-308h58h57v132c0,87,3,129,10,122c5-5,38-64,73-129l64-120l68-3l67-3l-34,63
		c-94,170-113,211-100,215c7,3,27,17,44,31c60,51,75,135,36,212c-33,65-73,81-223,89l-120,6V4988z M17794,5159c59-47,19-113-66-107
		l-43,3l-3,63l-3,62h44C17753,5180,17776,5173,17794,5159z"/>
	<path class="st0" d="M18290,4988v-308h60h60v135v134l93,3l92,3l3,53l3,52h-98h-98l3,60l4,60h94h94v55v54l-155,3l-155,3V4988z"/>
	<path class="st0" d="M18692,5055c4-273,9-295,86-349c34-24,53-30,111-32c81-3,133,16,174,66c41,48,47,90,47,330v225h-60h-60v-228
		v-229l-29-29c-37-36-79-38-118-5l-28,24l-5,234l-5,233h-59h-58L18692,5055z"/>
	<path class="st0" d="M19185,5238v-58h58h58l-3-250l-3-250h58h57v250v250h60h60v55v54l-172,3l-173,3V5238z"/>
	<path class="st0" d="M19600,5056c0-224,1-243,21-284c32-66,84-95,172-98c40-1,78,3,85,8c6,6,12,7,12,4c0-18,74,52,92,88
		c20,38,22,61,26,279l4,237h-61h-61v-226c0-125-4-233-10-243c-22-42-114-51-149-16c-14,13-16,49-16,253v237h-57h-58V5056z"/>
	<path class="st0" d="M20640,4988v-308h168h167l-3,55l-4,55h-109h-109v80v80h110h110v55v55h-110h-110v60v60h113h112v58v57h-167h-168
		V4988z"/>
	<path class="st0" d="M11770,4985v-305h60h60v305v305h-60h-60V4985z"/>
	<path class="st0" d="M20160,4986v-306h55h55v130c0,72,3,130,8,130c4,0,38-59,75-130l68-130h65h65l-71,133c-38,74-70,136-70,138
		c0,3,15,13,34,23c84,45,104,197,33,259c-47,41-80,50-199,55l-118,5V4986z M20386,5155c18-18,23-32,19-52c-7-39-32-54-85-51l-45,3
		l-3,63l-3,62h46C20351,5180,20367,5174,20386,5155z"/>
	<path class="st0" d="M235,4056c1-439,2-466,24-566c130-608,546-1013,1576-1535c349-177,761-329,1324-490
		C5073,919,8392,424,11265,258c127-7,445-13,755-13c469,0,549,2,650,18c113,18,169,40,3263,1265l3149,1247l-1329,3l-1328,2
		l-2030-941c-1116-517-2052-946-2080-952c-74-18-646-14-960,7c-1767,115-4273,450-6110,817c-1115,223-2028,469-2570,694
		c-213,88-659,308-870,430C949,3326,420,3875,257,4441l-22,76V4056z"/>
</g>
</svg>
